<svg width="21" height="21" viewBox="0 0 21 21" fill="none" xmlns="http://www.w3.org/2000/svg">
<g id="humbleicons:location">
<g id="Group">
<path id="Vector" d="M11.375 7.875C11.375 8.10706 11.2828 8.32962 11.1187 8.49372C10.9546 8.65781 10.7321 8.75 10.5 8.75C10.2679 8.75 10.0454 8.65781 9.88128 8.49372C9.71719 8.32962 9.625 8.10706 9.625 7.875C9.625 7.64294 9.71719 7.42038 9.88128 7.25628C10.0454 7.09219 10.2679 7 10.5 7C10.7321 7 10.9546 7.09219 11.1187 7.25628C11.2828 7.42038 11.375 7.64294 11.375 7.875Z" stroke="white" stroke-width="2" stroke-linejoin="round"/>
<path id="Vector_2" d="M15.3125 8.3125C15.3125 10.9708 13.5625 14 10.5 17.5C7.4375 14 5.6875 10.9708 5.6875 8.3125C5.6875 7.03615 6.19453 5.81207 7.09705 4.90955C7.99957 4.00703 9.22365 3.5 10.5 3.5C11.7764 3.5 13.0004 4.00703 13.903 4.90955C14.8055 5.81207 15.3125 7.03615 15.3125 8.3125Z" stroke="white" stroke-width="2" stroke-linejoin="round"/>
</g>
</g>
</svg>
