<svg width="20" height="21" viewBox="0 0 20 21" fill="none" xmlns="http://www.w3.org/2000/svg">
<g id="jam:whatsapp">
<g id="Group">
<path id="Vector" d="M9.5959 2.17648C5.1709 2.38481 1.68006 6.04314 1.6934 10.4406C1.69559 11.7351 2.0055 13.0104 2.59756 14.1615L1.7159 18.4123C1.70514 18.4655 1.70796 18.5205 1.72409 18.5722C1.74022 18.624 1.76914 18.6709 1.80818 18.7085C1.84723 18.7461 1.89513 18.7733 1.94745 18.7875C1.99978 18.8017 2.05485 18.8025 2.10756 18.7898L6.30256 17.8031C7.41363 18.3522 8.63335 18.646 9.87256 18.6631C14.3951 18.7323 18.1651 15.1673 18.3059 10.6798C18.4576 5.86731 14.4584 1.94564 9.5959 2.17564V2.17648ZM14.6017 14.9823C13.9971 15.5847 13.2796 16.0619 12.4902 16.3865C11.7009 16.7112 10.8552 16.8768 10.0017 16.874C8.99757 16.8771 8.00646 16.6465 7.10673 16.2006L6.52256 15.9115L3.95006 16.5165L4.49173 13.9073L4.2034 13.3473C3.73598 12.4413 3.49359 11.436 3.49673 10.4165C3.49673 8.69148 4.1734 7.06898 5.40173 5.84981C6.62606 4.63789 8.27902 3.95784 10.0017 3.95731C11.7401 3.95731 13.3734 4.62898 14.6017 5.84898C15.2069 6.44534 15.6871 7.15635 16.0144 7.94045C16.3416 8.72454 16.5093 9.566 16.5076 10.4156C16.5076 12.1256 15.8201 13.774 14.6017 14.9831V14.9823Z" fill="white"/>
<path id="Vector_2" d="M14.0347 12.2045L12.4255 11.7462C12.3217 11.7164 12.2117 11.715 12.1072 11.7423C12.0027 11.7696 11.9074 11.8244 11.8313 11.9012L11.438 12.2995C11.3566 12.3819 11.2527 12.4385 11.1393 12.4623C11.026 12.486 10.9081 12.4757 10.8005 12.4328C10.0397 12.127 8.438 10.7137 8.02883 10.0062C7.97148 9.90623 7.94528 9.79144 7.95359 9.67652C7.9619 9.5616 8.00436 9.45179 8.0755 9.36116L8.41883 8.91949C8.48493 8.83487 8.52675 8.73385 8.53982 8.62728C8.55288 8.5207 8.5367 8.41257 8.493 8.31449L7.81633 6.79449C7.77806 6.70953 7.72061 6.63461 7.64849 6.57561C7.57636 6.51661 7.49154 6.47515 7.40068 6.45447C7.30983 6.4338 7.21541 6.43448 7.12486 6.45646C7.03432 6.47844 6.9501 6.52112 6.87883 6.58116C6.42967 6.95866 5.89633 7.53116 5.83217 8.16699C5.718 9.28616 6.20133 10.697 8.02967 12.392C10.1422 14.3495 11.8347 14.6087 12.9355 14.3428C13.5605 14.1928 14.0605 13.5903 14.3747 13.0978C14.4249 13.0196 14.4561 12.9307 14.4657 12.8382C14.4753 12.7457 14.4631 12.6523 14.43 12.5654C14.397 12.4785 14.344 12.4006 14.2753 12.3379C14.2066 12.2752 14.1242 12.2295 14.0347 12.2045Z" fill="white"/>
</g>
</g>
</svg>
